<svg xmlns="http://www.w3.org/2000/svg" xmlns:xlink="http://www.w3.org/1999/xlink" width="2000" zoomAndPan="magnify" viewBox="0 0 1500 299.999988" height="400" preserveAspectRatio="xMidYMid meet" version="1.0"><defs><g/></defs><rect x="-150" width="1800" fill="#ffffff" y="-29.999999" height="359.999986" fill-opacity="1"/><rect x="-150" width="1800" fill="#ffffff" y="-29.999999" height="359.999986" fill-opacity="1"/><rect x="-150" width="1800" fill="#ffffff" y="-29.999999" height="359.999986" fill-opacity="1"/><rect x="-150" width="1800" fill="#ffffff" y="-29.999999" height="359.999986" fill-opacity="1"/><g fill="#ff00ff" fill-opacity="1"><g transform="translate(-3.062472, 255.753792)"><g><path d="M 91.0625 -140.734375 L 78.09375 -98.78125 L 121.40625 -98.78125 L 108.4375 -140.734375 C 107.707031 -142.390625 106.925781 -143.582031 106.09375 -144.3125 C 105.269531 -145.050781 104.304688 -145.421875 103.203125 -145.421875 L 96.296875 -145.421875 C 95.191406 -145.421875 94.222656 -145.050781 93.390625 -144.3125 C 92.566406 -143.582031 91.789062 -142.390625 91.0625 -140.734375 Z M 75.328125 -9.9375 C 75.328125 -6.4375 74.546875 -3.90625 72.984375 -2.34375 C 71.421875 -0.78125 68.890625 0 65.390625 0 L 24.828125 0 C 21.335938 0 18.8125 -0.78125 17.25 -2.34375 C 15.6875 -3.90625 14.90625 -6.4375 14.90625 -9.9375 L 14.90625 -82.78125 C 14.90625 -88.300781 15.773438 -94.644531 17.515625 -101.8125 C 19.265625 -108.988281 21.976562 -117.363281 25.65625 -126.9375 L 49.671875 -189.5625 C 50.773438 -192.695312 52.472656 -195 54.765625 -196.46875 C 57.066406 -197.9375 60.054688 -198.671875 63.734375 -198.671875 L 137.96875 -198.671875 C 141.46875 -198.671875 144.363281 -197.9375 146.65625 -196.46875 C 148.957031 -195 150.660156 -192.695312 151.765625 -189.5625 L 175.765625 -126.9375 C 179.453125 -117.363281 182.164062 -108.988281 183.90625 -101.8125 C 185.65625 -94.644531 186.53125 -88.300781 186.53125 -82.78125 L 186.53125 -9.9375 C 186.53125 -6.4375 185.75 -3.90625 184.1875 -2.34375 C 182.625 -0.78125 180.09375 0 176.59375 0 L 134.9375 0 C 131.257812 0 128.546875 -0.78125 126.796875 -2.34375 C 125.046875 -3.90625 124.171875 -6.4375 124.171875 -9.9375 L 124.171875 -48.5625 L 75.328125 -48.5625 Z M 75.328125 -9.9375 "/></g></g></g><g fill="#ff00ff" fill-opacity="1"><g transform="translate(198.37591, 255.753792)"><g><path d="M 169.421875 0 L 28.96875 0 C 25.476562 0 22.953125 -0.78125 21.390625 -2.34375 C 19.828125 -3.90625 19.046875 -6.4375 19.046875 -9.9375 L 19.046875 -188.734375 C 19.046875 -192.234375 19.828125 -194.765625 21.390625 -196.328125 C 22.953125 -197.890625 25.476562 -198.671875 28.96875 -198.671875 L 71.75 -198.671875 C 75.238281 -198.671875 77.765625 -197.890625 79.328125 -196.328125 C 80.890625 -194.765625 81.671875 -192.234375 81.671875 -188.734375 L 81.671875 -52.15625 L 119.484375 -52.15625 L 119.484375 -96.859375 C 119.484375 -100.347656 120.265625 -102.875 121.828125 -104.4375 C 123.390625 -106 125.921875 -106.78125 129.421875 -106.78125 L 169.421875 -106.78125 C 172.921875 -106.78125 175.453125 -106 177.015625 -104.4375 C 178.578125 -102.875 179.359375 -100.347656 179.359375 -96.859375 L 179.359375 -9.9375 C 179.359375 -6.4375 178.578125 -3.90625 177.015625 -2.34375 C 175.453125 -0.78125 172.921875 0 169.421875 0 Z M 169.421875 0 "/></g></g></g><g fill="#ff00ff" fill-opacity="1"><g transform="translate(390.156255, 255.753792)"><g><path d="M 112.859375 0 L 68.15625 0 C 64.65625 0 62.125 -0.78125 60.5625 -2.34375 C 59 -3.90625 58.21875 -6.4375 58.21875 -9.9375 L 58.21875 -145.421875 L 17.65625 -145.421875 C 14.164062 -145.421875 11.632812 -146.203125 10.0625 -147.765625 C 8.5 -149.328125 7.71875 -151.859375 7.71875 -155.359375 L 7.71875 -188.734375 C 7.71875 -192.234375 8.5 -194.765625 10.0625 -196.328125 C 11.632812 -197.890625 14.164062 -198.671875 17.65625 -198.671875 L 163.359375 -198.671875 C 166.847656 -198.671875 169.375 -197.890625 170.9375 -196.328125 C 172.5 -194.765625 173.28125 -192.234375 173.28125 -188.734375 L 173.28125 -155.359375 C 173.28125 -151.859375 172.5 -149.328125 170.9375 -147.765625 C 169.375 -146.203125 166.847656 -145.421875 163.359375 -145.421875 L 122.796875 -145.421875 L 122.796875 -9.9375 C 122.796875 -6.4375 122.007812 -3.90625 120.4375 -2.34375 C 118.875 -0.78125 116.347656 0 112.859375 0 Z M 112.859375 0 "/></g></g></g><g fill="#ff00ff" fill-opacity="1"><g transform="translate(571.174864, 255.753792)"><g><path d="M 80.84375 0 L 25.109375 0 C 21.617188 0 19.085938 -0.78125 17.515625 -2.34375 C 15.953125 -3.90625 15.171875 -6.4375 15.171875 -9.9375 L 15.171875 -65.953125 C 15.171875 -69.441406 15.953125 -71.96875 17.515625 -73.53125 C 19.085938 -75.101562 21.617188 -75.890625 25.109375 -75.890625 L 80.84375 -75.890625 C 84.34375 -75.890625 86.875 -75.101562 88.4375 -73.53125 C 90 -71.96875 90.78125 -69.441406 90.78125 -65.953125 L 90.78125 -9.9375 C 90.78125 -6.4375 90 -3.90625 88.4375 -2.34375 C 86.875 -0.78125 84.34375 0 80.84375 0 Z M 80.84375 0 "/></g></g></g><g fill="#ff00ff" fill-opacity="1"><g transform="translate(677.136962, 255.753792)"><g><path d="M 170.8125 0 L 83.890625 0 C 60.890625 0 43.820312 -4.597656 32.6875 -13.796875 C 21.5625 -22.992188 16 -37.160156 16 -56.296875 L 16 -142.390625 C 16 -161.515625 21.5625 -175.675781 32.6875 -184.875 C 43.820312 -194.070312 60.890625 -198.671875 83.890625 -198.671875 L 152.875 -198.671875 C 156.363281 -198.671875 158.890625 -197.890625 160.453125 -196.328125 C 162.015625 -194.765625 162.796875 -192.234375 162.796875 -188.734375 L 162.796875 -155.359375 C 162.796875 -151.859375 162.015625 -149.328125 160.453125 -147.765625 C 158.890625 -146.203125 156.363281 -145.421875 152.875 -145.421875 L 95.46875 -145.421875 C 89.769531 -145.421875 85.539062 -144.269531 82.78125 -141.96875 C 80.019531 -139.664062 78.640625 -136.21875 78.640625 -131.625 L 78.640625 -65.671875 C 78.640625 -61.078125 79.695312 -57.675781 81.8125 -55.46875 C 83.925781 -53.257812 87.097656 -52.15625 91.328125 -52.15625 L 118.09375 -52.15625 L 118.09375 -95.203125 C 118.09375 -98.691406 118.875 -101.21875 120.4375 -102.78125 C 122.007812 -104.34375 124.539062 -105.125 128.03125 -105.125 L 170.8125 -105.125 C 174.300781 -105.125 176.828125 -104.34375 178.390625 -102.78125 C 179.953125 -101.21875 180.734375 -98.691406 180.734375 -95.203125 L 180.734375 -9.9375 C 180.734375 -6.4375 179.953125 -3.90625 178.390625 -2.34375 C 176.828125 -0.78125 174.300781 0 170.8125 0 Z M 170.8125 0 "/></g></g></g><g fill="#ff00ff" fill-opacity="1"><g transform="translate(872.504556, 255.753792)"><g><path d="M 91.0625 -140.734375 L 78.09375 -98.78125 L 121.40625 -98.78125 L 108.4375 -140.734375 C 107.707031 -142.390625 106.925781 -143.582031 106.09375 -144.3125 C 105.269531 -145.050781 104.304688 -145.421875 103.203125 -145.421875 L 96.296875 -145.421875 C 95.191406 -145.421875 94.222656 -145.050781 93.390625 -144.3125 C 92.566406 -143.582031 91.789062 -142.390625 91.0625 -140.734375 Z M 75.328125 -9.9375 C 75.328125 -6.4375 74.546875 -3.90625 72.984375 -2.34375 C 71.421875 -0.78125 68.890625 0 65.390625 0 L 24.828125 0 C 21.335938 0 18.8125 -0.78125 17.25 -2.34375 C 15.6875 -3.90625 14.90625 -6.4375 14.90625 -9.9375 L 14.90625 -82.78125 C 14.90625 -88.300781 15.773438 -94.644531 17.515625 -101.8125 C 19.265625 -108.988281 21.976562 -117.363281 25.65625 -126.9375 L 49.671875 -189.5625 C 50.773438 -192.695312 52.472656 -195 54.765625 -196.46875 C 57.066406 -197.9375 60.054688 -198.671875 63.734375 -198.671875 L 137.96875 -198.671875 C 141.46875 -198.671875 144.363281 -197.9375 146.65625 -196.46875 C 148.957031 -195 150.660156 -192.695312 151.765625 -189.5625 L 175.765625 -126.9375 C 179.453125 -117.363281 182.164062 -108.988281 183.90625 -101.8125 C 185.65625 -94.644531 186.53125 -88.300781 186.53125 -82.78125 L 186.53125 -9.9375 C 186.53125 -6.4375 185.75 -3.90625 184.1875 -2.34375 C 182.625 -0.78125 180.09375 0 176.59375 0 L 134.9375 0 C 131.257812 0 128.546875 -0.78125 126.796875 -2.34375 C 125.046875 -3.90625 124.171875 -6.4375 124.171875 -9.9375 L 124.171875 -48.5625 L 75.328125 -48.5625 Z M 75.328125 -9.9375 "/></g></g></g><g fill="#ff00ff" fill-opacity="1"><g transform="translate(1073.942938, 255.753792)"><g><path d="M 70.09375 0 L 28.96875 0 C 25.476562 0 22.953125 -0.78125 21.390625 -2.34375 C 19.828125 -3.90625 19.046875 -6.4375 19.046875 -9.9375 L 19.046875 -188.734375 C 19.046875 -192.234375 19.828125 -194.765625 21.390625 -196.328125 C 22.953125 -197.890625 25.476562 -198.671875 28.96875 -198.671875 L 73.40625 -198.671875 C 76.34375 -198.671875 78.773438 -198.023438 80.703125 -196.734375 C 82.640625 -195.453125 84.4375 -193.335938 86.09375 -190.390625 L 110.921875 -145.421875 C 111.847656 -143.765625 112.628906 -142.566406 113.265625 -141.828125 C 113.910156 -141.097656 114.785156 -140.734375 115.890625 -140.734375 L 118.375 -140.734375 C 119.476562 -140.734375 120.351562 -141.097656 121 -141.828125 C 121.644531 -142.566406 122.425781 -143.765625 123.34375 -145.421875 L 147.90625 -190.390625 C 149.5625 -193.335938 151.351562 -195.453125 153.28125 -196.734375 C 155.21875 -198.023438 157.65625 -198.671875 160.59375 -198.671875 L 205.296875 -198.671875 C 208.796875 -198.671875 211.328125 -197.890625 212.890625 -196.328125 C 214.453125 -194.765625 215.234375 -192.234375 215.234375 -188.734375 L 215.234375 -9.9375 C 215.234375 -6.4375 214.453125 -3.90625 212.890625 -2.34375 C 211.328125 -0.78125 208.796875 0 205.296875 0 L 162.796875 0 C 159.304688 0 156.78125 -0.78125 155.21875 -2.34375 C 153.65625 -3.90625 152.875 -6.4375 152.875 -9.9375 L 152.875 -107.0625 L 136.59375 -76.984375 C 134.9375 -73.859375 132.957031 -71.601562 130.65625 -70.21875 C 128.351562 -68.84375 125.457031 -68.15625 121.96875 -68.15625 L 110.921875 -68.15625 C 107.429688 -68.15625 104.535156 -68.84375 102.234375 -70.21875 C 99.929688 -71.601562 97.953125 -73.859375 96.296875 -76.984375 L 80.015625 -107.0625 L 80.015625 -9.9375 C 80.015625 -6.4375 79.234375 -3.90625 77.671875 -2.34375 C 76.109375 -0.78125 73.582031 0 70.09375 0 Z M 70.09375 0 "/></g></g></g><g fill="#ff00ff" fill-opacity="1"><g transform="translate(1308.218549, 255.753792)"><g><path d="M 157.015625 0 L 28.96875 0 C 25.476562 0 22.953125 -0.78125 21.390625 -2.34375 C 19.828125 -3.90625 19.046875 -6.4375 19.046875 -9.9375 L 19.046875 -188.734375 C 19.046875 -192.234375 19.828125 -194.765625 21.390625 -196.328125 C 22.953125 -197.890625 25.476562 -198.671875 28.96875 -198.671875 L 157.015625 -198.671875 C 160.503906 -198.671875 163.03125 -197.890625 164.59375 -196.328125 C 166.15625 -194.765625 166.9375 -192.234375 166.9375 -188.734375 L 166.9375 -156.453125 C 166.9375 -152.960938 166.15625 -150.429688 164.59375 -148.859375 C 163.03125 -147.296875 160.503906 -146.515625 157.015625 -146.515625 L 80.84375 -146.515625 L 80.84375 -125.28125 L 134.65625 -125.28125 C 138.15625 -125.28125 140.6875 -124.492188 142.25 -122.921875 C 143.8125 -121.359375 144.59375 -118.832031 144.59375 -115.34375 L 144.59375 -85.8125 C 144.59375 -82.320312 143.8125 -79.796875 142.25 -78.234375 C 140.6875 -76.671875 138.15625 -75.890625 134.65625 -75.890625 L 80.84375 -75.890625 L 80.84375 -52.15625 L 157.015625 -52.15625 C 160.503906 -52.15625 163.03125 -51.375 164.59375 -49.8125 C 166.15625 -48.25 166.9375 -45.71875 166.9375 -42.21875 L 166.9375 -9.9375 C 166.9375 -6.4375 166.15625 -3.90625 164.59375 -2.34375 C 163.03125 -0.78125 160.503906 0 157.015625 0 Z M 157.015625 0 "/></g></g></g><g fill="#00ffff" fill-opacity="1"><g transform="translate(11.316651, 242.345045)"><g><path d="M 91.0625 -140.734375 L 78.09375 -98.78125 L 121.40625 -98.78125 L 108.4375 -140.734375 C 107.707031 -142.390625 106.925781 -143.582031 106.09375 -144.3125 C 105.269531 -145.050781 104.304688 -145.421875 103.203125 -145.421875 L 96.296875 -145.421875 C 95.191406 -145.421875 94.222656 -145.050781 93.390625 -144.3125 C 92.566406 -143.582031 91.789062 -142.390625 91.0625 -140.734375 Z M 75.328125 -9.9375 C 75.328125 -6.4375 74.546875 -3.90625 72.984375 -2.34375 C 71.421875 -0.78125 68.890625 0 65.390625 0 L 24.828125 0 C 21.335938 0 18.8125 -0.78125 17.25 -2.34375 C 15.6875 -3.90625 14.90625 -6.4375 14.90625 -9.9375 L 14.90625 -82.78125 C 14.90625 -88.300781 15.773438 -94.644531 17.515625 -101.8125 C 19.265625 -108.988281 21.976562 -117.363281 25.65625 -126.9375 L 49.671875 -189.5625 C 50.773438 -192.695312 52.472656 -195 54.765625 -196.46875 C 57.066406 -197.9375 60.054688 -198.671875 63.734375 -198.671875 L 137.96875 -198.671875 C 141.46875 -198.671875 144.363281 -197.9375 146.65625 -196.46875 C 148.957031 -195 150.660156 -192.695312 151.765625 -189.5625 L 175.765625 -126.9375 C 179.453125 -117.363281 182.164062 -108.988281 183.90625 -101.8125 C 185.65625 -94.644531 186.53125 -88.300781 186.53125 -82.78125 L 186.53125 -9.9375 C 186.53125 -6.4375 185.75 -3.90625 184.1875 -2.34375 C 182.625 -0.78125 180.09375 0 176.59375 0 L 134.9375 0 C 131.257812 0 128.546875 -0.78125 126.796875 -2.34375 C 125.046875 -3.90625 124.171875 -6.4375 124.171875 -9.9375 L 124.171875 -48.5625 L 75.328125 -48.5625 Z M 75.328125 -9.9375 "/></g></g></g><g fill="#00ffff" fill-opacity="1"><g transform="translate(212.755033, 242.345045)"><g><path d="M 169.421875 0 L 28.96875 0 C 25.476562 0 22.953125 -0.78125 21.390625 -2.34375 C 19.828125 -3.90625 19.046875 -6.4375 19.046875 -9.9375 L 19.046875 -188.734375 C 19.046875 -192.234375 19.828125 -194.765625 21.390625 -196.328125 C 22.953125 -197.890625 25.476562 -198.671875 28.96875 -198.671875 L 71.75 -198.671875 C 75.238281 -198.671875 77.765625 -197.890625 79.328125 -196.328125 C 80.890625 -194.765625 81.671875 -192.234375 81.671875 -188.734375 L 81.671875 -52.15625 L 119.484375 -52.15625 L 119.484375 -96.859375 C 119.484375 -100.347656 120.265625 -102.875 121.828125 -104.4375 C 123.390625 -106 125.921875 -106.78125 129.421875 -106.78125 L 169.421875 -106.78125 C 172.921875 -106.78125 175.453125 -106 177.015625 -104.4375 C 178.578125 -102.875 179.359375 -100.347656 179.359375 -96.859375 L 179.359375 -9.9375 C 179.359375 -6.4375 178.578125 -3.90625 177.015625 -2.34375 C 175.453125 -0.78125 172.921875 0 169.421875 0 Z M 169.421875 0 "/></g></g></g><g fill="#00ffff" fill-opacity="1"><g transform="translate(404.535379, 242.345045)"><g><path d="M 112.859375 0 L 68.15625 0 C 64.65625 0 62.125 -0.78125 60.5625 -2.34375 C 59 -3.90625 58.21875 -6.4375 58.21875 -9.9375 L 58.21875 -145.421875 L 17.65625 -145.421875 C 14.164062 -145.421875 11.632812 -146.203125 10.0625 -147.765625 C 8.5 -149.328125 7.71875 -151.859375 7.71875 -155.359375 L 7.71875 -188.734375 C 7.71875 -192.234375 8.5 -194.765625 10.0625 -196.328125 C 11.632812 -197.890625 14.164062 -198.671875 17.65625 -198.671875 L 163.359375 -198.671875 C 166.847656 -198.671875 169.375 -197.890625 170.9375 -196.328125 C 172.5 -194.765625 173.28125 -192.234375 173.28125 -188.734375 L 173.28125 -155.359375 C 173.28125 -151.859375 172.5 -149.328125 170.9375 -147.765625 C 169.375 -146.203125 166.847656 -145.421875 163.359375 -145.421875 L 122.796875 -145.421875 L 122.796875 -9.9375 C 122.796875 -6.4375 122.007812 -3.90625 120.4375 -2.34375 C 118.875 -0.78125 116.347656 0 112.859375 0 Z M 112.859375 0 "/></g></g></g><g fill="#00ffff" fill-opacity="1"><g transform="translate(585.553988, 242.345045)"><g><path d="M 80.84375 0 L 25.109375 0 C 21.617188 0 19.085938 -0.78125 17.515625 -2.34375 C 15.953125 -3.90625 15.171875 -6.4375 15.171875 -9.9375 L 15.171875 -65.953125 C 15.171875 -69.441406 15.953125 -71.96875 17.515625 -73.53125 C 19.085938 -75.101562 21.617188 -75.890625 25.109375 -75.890625 L 80.84375 -75.890625 C 84.34375 -75.890625 86.875 -75.101562 88.4375 -73.53125 C 90 -71.96875 90.78125 -69.441406 90.78125 -65.953125 L 90.78125 -9.9375 C 90.78125 -6.4375 90 -3.90625 88.4375 -2.34375 C 86.875 -0.78125 84.34375 0 80.84375 0 Z M 80.84375 0 "/></g></g></g><g fill="#00ffff" fill-opacity="1"><g transform="translate(691.516085, 242.345045)"><g><path d="M 170.8125 0 L 83.890625 0 C 60.890625 0 43.820312 -4.597656 32.6875 -13.796875 C 21.5625 -22.992188 16 -37.160156 16 -56.296875 L 16 -142.390625 C 16 -161.515625 21.5625 -175.675781 32.6875 -184.875 C 43.820312 -194.070312 60.890625 -198.671875 83.890625 -198.671875 L 152.875 -198.671875 C 156.363281 -198.671875 158.890625 -197.890625 160.453125 -196.328125 C 162.015625 -194.765625 162.796875 -192.234375 162.796875 -188.734375 L 162.796875 -155.359375 C 162.796875 -151.859375 162.015625 -149.328125 160.453125 -147.765625 C 158.890625 -146.203125 156.363281 -145.421875 152.875 -145.421875 L 95.46875 -145.421875 C 89.769531 -145.421875 85.539062 -144.269531 82.78125 -141.96875 C 80.019531 -139.664062 78.640625 -136.21875 78.640625 -131.625 L 78.640625 -65.671875 C 78.640625 -61.078125 79.695312 -57.675781 81.8125 -55.46875 C 83.925781 -53.257812 87.097656 -52.15625 91.328125 -52.15625 L 118.09375 -52.15625 L 118.09375 -95.203125 C 118.09375 -98.691406 118.875 -101.21875 120.4375 -102.78125 C 122.007812 -104.34375 124.539062 -105.125 128.03125 -105.125 L 170.8125 -105.125 C 174.300781 -105.125 176.828125 -104.34375 178.390625 -102.78125 C 179.953125 -101.21875 180.734375 -98.691406 180.734375 -95.203125 L 180.734375 -9.9375 C 180.734375 -6.4375 179.953125 -3.90625 178.390625 -2.34375 C 176.828125 -0.78125 174.300781 0 170.8125 0 Z M 170.8125 0 "/></g></g></g><g fill="#00ffff" fill-opacity="1"><g transform="translate(886.883679, 242.345045)"><g><path d="M 91.0625 -140.734375 L 78.09375 -98.78125 L 121.40625 -98.78125 L 108.4375 -140.734375 C 107.707031 -142.390625 106.925781 -143.582031 106.09375 -144.3125 C 105.269531 -145.050781 104.304688 -145.421875 103.203125 -145.421875 L 96.296875 -145.421875 C 95.191406 -145.421875 94.222656 -145.050781 93.390625 -144.3125 C 92.566406 -143.582031 91.789062 -142.390625 91.0625 -140.734375 Z M 75.328125 -9.9375 C 75.328125 -6.4375 74.546875 -3.90625 72.984375 -2.34375 C 71.421875 -0.78125 68.890625 0 65.390625 0 L 24.828125 0 C 21.335938 0 18.8125 -0.78125 17.25 -2.34375 C 15.6875 -3.90625 14.90625 -6.4375 14.90625 -9.9375 L 14.90625 -82.78125 C 14.90625 -88.300781 15.773438 -94.644531 17.515625 -101.8125 C 19.265625 -108.988281 21.976562 -117.363281 25.65625 -126.9375 L 49.671875 -189.5625 C 50.773438 -192.695312 52.472656 -195 54.765625 -196.46875 C 57.066406 -197.9375 60.054688 -198.671875 63.734375 -198.671875 L 137.96875 -198.671875 C 141.46875 -198.671875 144.363281 -197.9375 146.65625 -196.46875 C 148.957031 -195 150.660156 -192.695312 151.765625 -189.5625 L 175.765625 -126.9375 C 179.453125 -117.363281 182.164062 -108.988281 183.90625 -101.8125 C 185.65625 -94.644531 186.53125 -88.300781 186.53125 -82.78125 L 186.53125 -9.9375 C 186.53125 -6.4375 185.75 -3.90625 184.1875 -2.34375 C 182.625 -0.78125 180.09375 0 176.59375 0 L 134.9375 0 C 131.257812 0 128.546875 -0.78125 126.796875 -2.34375 C 125.046875 -3.90625 124.171875 -6.4375 124.171875 -9.9375 L 124.171875 -48.5625 L 75.328125 -48.5625 Z M 75.328125 -9.9375 "/></g></g></g><g fill="#00ffff" fill-opacity="1"><g transform="translate(1088.322061, 242.345045)"><g><path d="M 70.09375 0 L 28.96875 0 C 25.476562 0 22.953125 -0.78125 21.390625 -2.34375 C 19.828125 -3.90625 19.046875 -6.4375 19.046875 -9.9375 L 19.046875 -188.734375 C 19.046875 -192.234375 19.828125 -194.765625 21.390625 -196.328125 C 22.953125 -197.890625 25.476562 -198.671875 28.96875 -198.671875 L 73.40625 -198.671875 C 76.34375 -198.671875 78.773438 -198.023438 80.703125 -196.734375 C 82.640625 -195.453125 84.4375 -193.335938 86.09375 -190.390625 L 110.921875 -145.421875 C 111.847656 -143.765625 112.628906 -142.566406 113.265625 -141.828125 C 113.910156 -141.097656 114.785156 -140.734375 115.890625 -140.734375 L 118.375 -140.734375 C 119.476562 -140.734375 120.351562 -141.097656 121 -141.828125 C 121.644531 -142.566406 122.425781 -143.765625 123.34375 -145.421875 L 147.90625 -190.390625 C 149.5625 -193.335938 151.351562 -195.453125 153.28125 -196.734375 C 155.21875 -198.023438 157.65625 -198.671875 160.59375 -198.671875 L 205.296875 -198.671875 C 208.796875 -198.671875 211.328125 -197.890625 212.890625 -196.328125 C 214.453125 -194.765625 215.234375 -192.234375 215.234375 -188.734375 L 215.234375 -9.9375 C 215.234375 -6.4375 214.453125 -3.90625 212.890625 -2.34375 C 211.328125 -0.78125 208.796875 0 205.296875 0 L 162.796875 0 C 159.304688 0 156.78125 -0.78125 155.21875 -2.34375 C 153.65625 -3.90625 152.875 -6.4375 152.875 -9.9375 L 152.875 -107.0625 L 136.59375 -76.984375 C 134.9375 -73.859375 132.957031 -71.601562 130.65625 -70.21875 C 128.351562 -68.84375 125.457031 -68.15625 121.96875 -68.15625 L 110.921875 -68.15625 C 107.429688 -68.15625 104.535156 -68.84375 102.234375 -70.21875 C 99.929688 -71.601562 97.953125 -73.859375 96.296875 -76.984375 L 80.015625 -107.0625 L 80.015625 -9.9375 C 80.015625 -6.4375 79.234375 -3.90625 77.671875 -2.34375 C 76.109375 -0.78125 73.582031 0 70.09375 0 Z M 70.09375 0 "/></g></g></g><g fill="#00ffff" fill-opacity="1"><g transform="translate(1322.597672, 242.345045)"><g><path d="M 157.015625 0 L 28.96875 0 C 25.476562 0 22.953125 -0.78125 21.390625 -2.34375 C 19.828125 -3.90625 19.046875 -6.4375 19.046875 -9.9375 L 19.046875 -188.734375 C 19.046875 -192.234375 19.828125 -194.765625 21.390625 -196.328125 C 22.953125 -197.890625 25.476562 -198.671875 28.96875 -198.671875 L 157.015625 -198.671875 C 160.503906 -198.671875 163.03125 -197.890625 164.59375 -196.328125 C 166.15625 -194.765625 166.9375 -192.234375 166.9375 -188.734375 L 166.9375 -156.453125 C 166.9375 -152.960938 166.15625 -150.429688 164.59375 -148.859375 C 163.03125 -147.296875 160.503906 -146.515625 157.015625 -146.515625 L 80.84375 -146.515625 L 80.84375 -125.28125 L 134.65625 -125.28125 C 138.15625 -125.28125 140.6875 -124.492188 142.25 -122.921875 C 143.8125 -121.359375 144.59375 -118.832031 144.59375 -115.34375 L 144.59375 -85.8125 C 144.59375 -82.320312 143.8125 -79.796875 142.25 -78.234375 C 140.6875 -76.671875 138.15625 -75.890625 134.65625 -75.890625 L 80.84375 -75.890625 L 80.84375 -52.15625 L 157.015625 -52.15625 C 160.503906 -52.15625 163.03125 -51.375 164.59375 -49.8125 C 166.15625 -48.25 166.9375 -45.71875 166.9375 -42.21875 L 166.9375 -9.9375 C 166.9375 -6.4375 166.15625 -3.90625 164.59375 -2.34375 C 163.03125 -0.78125 160.503906 0 157.015625 0 Z M 157.015625 0 "/></g></g></g><g fill="#7126b5" fill-opacity="1"><g transform="translate(4.127089, 249.049419)"><g><path d="M 91.0625 -140.734375 L 78.09375 -98.78125 L 121.40625 -98.78125 L 108.4375 -140.734375 C 107.707031 -142.390625 106.925781 -143.582031 106.09375 -144.3125 C 105.269531 -145.050781 104.304688 -145.421875 103.203125 -145.421875 L 96.296875 -145.421875 C 95.191406 -145.421875 94.222656 -145.050781 93.390625 -144.3125 C 92.566406 -143.582031 91.789062 -142.390625 91.0625 -140.734375 Z M 75.328125 -9.9375 C 75.328125 -6.4375 74.546875 -3.90625 72.984375 -2.34375 C 71.421875 -0.78125 68.890625 0 65.390625 0 L 24.828125 0 C 21.335938 0 18.8125 -0.78125 17.25 -2.34375 C 15.6875 -3.90625 14.90625 -6.4375 14.90625 -9.9375 L 14.90625 -82.78125 C 14.90625 -88.300781 15.773438 -94.644531 17.515625 -101.8125 C 19.265625 -108.988281 21.976562 -117.363281 25.65625 -126.9375 L 49.671875 -189.5625 C 50.773438 -192.695312 52.472656 -195 54.765625 -196.46875 C 57.066406 -197.9375 60.054688 -198.671875 63.734375 -198.671875 L 137.96875 -198.671875 C 141.46875 -198.671875 144.363281 -197.9375 146.65625 -196.46875 C 148.957031 -195 150.660156 -192.695312 151.765625 -189.5625 L 175.765625 -126.9375 C 179.453125 -117.363281 182.164062 -108.988281 183.90625 -101.8125 C 185.65625 -94.644531 186.53125 -88.300781 186.53125 -82.78125 L 186.53125 -9.9375 C 186.53125 -6.4375 185.75 -3.90625 184.1875 -2.34375 C 182.625 -0.78125 180.09375 0 176.59375 0 L 134.9375 0 C 131.257812 0 128.546875 -0.78125 126.796875 -2.34375 C 125.046875 -3.90625 124.171875 -6.4375 124.171875 -9.9375 L 124.171875 -48.5625 L 75.328125 -48.5625 Z M 75.328125 -9.9375 "/></g></g></g><g fill="#7126b5" fill-opacity="1"><g transform="translate(205.565472, 249.049419)"><g><path d="M 169.421875 0 L 28.96875 0 C 25.476562 0 22.953125 -0.78125 21.390625 -2.34375 C 19.828125 -3.90625 19.046875 -6.4375 19.046875 -9.9375 L 19.046875 -188.734375 C 19.046875 -192.234375 19.828125 -194.765625 21.390625 -196.328125 C 22.953125 -197.890625 25.476562 -198.671875 28.96875 -198.671875 L 71.75 -198.671875 C 75.238281 -198.671875 77.765625 -197.890625 79.328125 -196.328125 C 80.890625 -194.765625 81.671875 -192.234375 81.671875 -188.734375 L 81.671875 -52.15625 L 119.484375 -52.15625 L 119.484375 -96.859375 C 119.484375 -100.347656 120.265625 -102.875 121.828125 -104.4375 C 123.390625 -106 125.921875 -106.78125 129.421875 -106.78125 L 169.421875 -106.78125 C 172.921875 -106.78125 175.453125 -106 177.015625 -104.4375 C 178.578125 -102.875 179.359375 -100.347656 179.359375 -96.859375 L 179.359375 -9.9375 C 179.359375 -6.4375 178.578125 -3.90625 177.015625 -2.34375 C 175.453125 -0.78125 172.921875 0 169.421875 0 Z M 169.421875 0 "/></g></g></g><g fill="#7126b5" fill-opacity="1"><g transform="translate(397.345817, 249.049419)"><g><path d="M 112.859375 0 L 68.15625 0 C 64.65625 0 62.125 -0.78125 60.5625 -2.34375 C 59 -3.90625 58.21875 -6.4375 58.21875 -9.9375 L 58.21875 -145.421875 L 17.65625 -145.421875 C 14.164062 -145.421875 11.632812 -146.203125 10.0625 -147.765625 C 8.5 -149.328125 7.71875 -151.859375 7.71875 -155.359375 L 7.71875 -188.734375 C 7.71875 -192.234375 8.5 -194.765625 10.0625 -196.328125 C 11.632812 -197.890625 14.164062 -198.671875 17.65625 -198.671875 L 163.359375 -198.671875 C 166.847656 -198.671875 169.375 -197.890625 170.9375 -196.328125 C 172.5 -194.765625 173.28125 -192.234375 173.28125 -188.734375 L 173.28125 -155.359375 C 173.28125 -151.859375 172.5 -149.328125 170.9375 -147.765625 C 169.375 -146.203125 166.847656 -145.421875 163.359375 -145.421875 L 122.796875 -145.421875 L 122.796875 -9.9375 C 122.796875 -6.4375 122.007812 -3.90625 120.4375 -2.34375 C 118.875 -0.78125 116.347656 0 112.859375 0 Z M 112.859375 0 "/></g></g></g><g fill="#7126b5" fill-opacity="1"><g transform="translate(578.364426, 249.049419)"><g><path d="M 80.84375 0 L 25.109375 0 C 21.617188 0 19.085938 -0.78125 17.515625 -2.34375 C 15.953125 -3.90625 15.171875 -6.4375 15.171875 -9.9375 L 15.171875 -65.953125 C 15.171875 -69.441406 15.953125 -71.96875 17.515625 -73.53125 C 19.085938 -75.101562 21.617188 -75.890625 25.109375 -75.890625 L 80.84375 -75.890625 C 84.34375 -75.890625 86.875 -75.101562 88.4375 -73.53125 C 90 -71.96875 90.78125 -69.441406 90.78125 -65.953125 L 90.78125 -9.9375 C 90.78125 -6.4375 90 -3.90625 88.4375 -2.34375 C 86.875 -0.78125 84.34375 0 80.84375 0 Z M 80.84375 0 "/></g></g></g><g fill="#7126b5" fill-opacity="1"><g transform="translate(684.326524, 249.049419)"><g><path d="M 170.8125 0 L 83.890625 0 C 60.890625 0 43.820312 -4.597656 32.6875 -13.796875 C 21.5625 -22.992188 16 -37.160156 16 -56.296875 L 16 -142.390625 C 16 -161.515625 21.5625 -175.675781 32.6875 -184.875 C 43.820312 -194.070312 60.890625 -198.671875 83.890625 -198.671875 L 152.875 -198.671875 C 156.363281 -198.671875 158.890625 -197.890625 160.453125 -196.328125 C 162.015625 -194.765625 162.796875 -192.234375 162.796875 -188.734375 L 162.796875 -155.359375 C 162.796875 -151.859375 162.015625 -149.328125 160.453125 -147.765625 C 158.890625 -146.203125 156.363281 -145.421875 152.875 -145.421875 L 95.46875 -145.421875 C 89.769531 -145.421875 85.539062 -144.269531 82.78125 -141.96875 C 80.019531 -139.664062 78.640625 -136.21875 78.640625 -131.625 L 78.640625 -65.671875 C 78.640625 -61.078125 79.695312 -57.675781 81.8125 -55.46875 C 83.925781 -53.257812 87.097656 -52.15625 91.328125 -52.15625 L 118.09375 -52.15625 L 118.09375 -95.203125 C 118.09375 -98.691406 118.875 -101.21875 120.4375 -102.78125 C 122.007812 -104.34375 124.539062 -105.125 128.03125 -105.125 L 170.8125 -105.125 C 174.300781 -105.125 176.828125 -104.34375 178.390625 -102.78125 C 179.953125 -101.21875 180.734375 -98.691406 180.734375 -95.203125 L 180.734375 -9.9375 C 180.734375 -6.4375 179.953125 -3.90625 178.390625 -2.34375 C 176.828125 -0.78125 174.300781 0 170.8125 0 Z M 170.8125 0 "/></g></g></g><g fill="#7126b5" fill-opacity="1"><g transform="translate(879.694117, 249.049419)"><g><path d="M 91.0625 -140.734375 L 78.09375 -98.78125 L 121.40625 -98.78125 L 108.4375 -140.734375 C 107.707031 -142.390625 106.925781 -143.582031 106.09375 -144.3125 C 105.269531 -145.050781 104.304688 -145.421875 103.203125 -145.421875 L 96.296875 -145.421875 C 95.191406 -145.421875 94.222656 -145.050781 93.390625 -144.3125 C 92.566406 -143.582031 91.789062 -142.390625 91.0625 -140.734375 Z M 75.328125 -9.9375 C 75.328125 -6.4375 74.546875 -3.90625 72.984375 -2.34375 C 71.421875 -0.78125 68.890625 0 65.390625 0 L 24.828125 0 C 21.335938 0 18.8125 -0.78125 17.25 -2.34375 C 15.6875 -3.90625 14.90625 -6.4375 14.90625 -9.9375 L 14.90625 -82.78125 C 14.90625 -88.300781 15.773438 -94.644531 17.515625 -101.8125 C 19.265625 -108.988281 21.976562 -117.363281 25.65625 -126.9375 L 49.671875 -189.5625 C 50.773438 -192.695312 52.472656 -195 54.765625 -196.46875 C 57.066406 -197.9375 60.054688 -198.671875 63.734375 -198.671875 L 137.96875 -198.671875 C 141.46875 -198.671875 144.363281 -197.9375 146.65625 -196.46875 C 148.957031 -195 150.660156 -192.695312 151.765625 -189.5625 L 175.765625 -126.9375 C 179.453125 -117.363281 182.164062 -108.988281 183.90625 -101.8125 C 185.65625 -94.644531 186.53125 -88.300781 186.53125 -82.78125 L 186.53125 -9.9375 C 186.53125 -6.4375 185.75 -3.90625 184.1875 -2.34375 C 182.625 -0.78125 180.09375 0 176.59375 0 L 134.9375 0 C 131.257812 0 128.546875 -0.78125 126.796875 -2.34375 C 125.046875 -3.90625 124.171875 -6.4375 124.171875 -9.9375 L 124.171875 -48.5625 L 75.328125 -48.5625 Z M 75.328125 -9.9375 "/></g></g></g><g fill="#7126b5" fill-opacity="1"><g transform="translate(1081.132499, 249.049419)"><g><path d="M 70.09375 0 L 28.96875 0 C 25.476562 0 22.953125 -0.78125 21.390625 -2.34375 C 19.828125 -3.90625 19.046875 -6.4375 19.046875 -9.9375 L 19.046875 -188.734375 C 19.046875 -192.234375 19.828125 -194.765625 21.390625 -196.328125 C 22.953125 -197.890625 25.476562 -198.671875 28.96875 -198.671875 L 73.40625 -198.671875 C 76.34375 -198.671875 78.773438 -198.023438 80.703125 -196.734375 C 82.640625 -195.453125 84.4375 -193.335938 86.09375 -190.390625 L 110.921875 -145.421875 C 111.847656 -143.765625 112.628906 -142.566406 113.265625 -141.828125 C 113.910156 -141.097656 114.785156 -140.734375 115.890625 -140.734375 L 118.375 -140.734375 C 119.476562 -140.734375 120.351562 -141.097656 121 -141.828125 C 121.644531 -142.566406 122.425781 -143.765625 123.34375 -145.421875 L 147.90625 -190.390625 C 149.5625 -193.335938 151.351562 -195.453125 153.28125 -196.734375 C 155.21875 -198.023438 157.65625 -198.671875 160.59375 -198.671875 L 205.296875 -198.671875 C 208.796875 -198.671875 211.328125 -197.890625 212.890625 -196.328125 C 214.453125 -194.765625 215.234375 -192.234375 215.234375 -188.734375 L 215.234375 -9.9375 C 215.234375 -6.4375 214.453125 -3.90625 212.890625 -2.34375 C 211.328125 -0.78125 208.796875 0 205.296875 0 L 162.796875 0 C 159.304688 0 156.78125 -0.78125 155.21875 -2.34375 C 153.65625 -3.90625 152.875 -6.4375 152.875 -9.9375 L 152.875 -107.0625 L 136.59375 -76.984375 C 134.9375 -73.859375 132.957031 -71.601562 130.65625 -70.21875 C 128.351562 -68.84375 125.457031 -68.15625 121.96875 -68.15625 L 110.921875 -68.15625 C 107.429688 -68.15625 104.535156 -68.84375 102.234375 -70.21875 C 99.929688 -71.601562 97.953125 -73.859375 96.296875 -76.984375 L 80.015625 -107.0625 L 80.015625 -9.9375 C 80.015625 -6.4375 79.234375 -3.90625 77.671875 -2.34375 C 76.109375 -0.78125 73.582031 0 70.09375 0 Z M 70.09375 0 "/></g></g></g><g fill="#7126b5" fill-opacity="1"><g transform="translate(1315.40811, 249.049419)"><g><path d="M 157.015625 0 L 28.96875 0 C 25.476562 0 22.953125 -0.78125 21.390625 -2.34375 C 19.828125 -3.90625 19.046875 -6.4375 19.046875 -9.9375 L 19.046875 -188.734375 C 19.046875 -192.234375 19.828125 -194.765625 21.390625 -196.328125 C 22.953125 -197.890625 25.476562 -198.671875 28.96875 -198.671875 L 157.015625 -198.671875 C 160.503906 -198.671875 163.03125 -197.890625 164.59375 -196.328125 C 166.15625 -194.765625 166.9375 -192.234375 166.9375 -188.734375 L 166.9375 -156.453125 C 166.9375 -152.960938 166.15625 -150.429688 164.59375 -148.859375 C 163.03125 -147.296875 160.503906 -146.515625 157.015625 -146.515625 L 80.84375 -146.515625 L 80.84375 -125.28125 L 134.65625 -125.28125 C 138.15625 -125.28125 140.6875 -124.492188 142.25 -122.921875 C 143.8125 -121.359375 144.59375 -118.832031 144.59375 -115.34375 L 144.59375 -85.8125 C 144.59375 -82.320312 143.8125 -79.796875 142.25 -78.234375 C 140.6875 -76.671875 138.15625 -75.890625 134.65625 -75.890625 L 80.84375 -75.890625 L 80.84375 -52.15625 L 157.015625 -52.15625 C 160.503906 -52.15625 163.03125 -51.375 164.59375 -49.8125 C 166.15625 -48.25 166.9375 -45.71875 166.9375 -42.21875 L 166.9375 -9.9375 C 166.9375 -6.4375 166.15625 -3.90625 164.59375 -2.34375 C 163.03125 -0.78125 160.503906 0 157.015625 0 Z M 157.015625 0 "/></g></g></g></svg>