<svg fill="none" height="24" viewBox="0 0 24 24" width="24" xmlns="http://www.w3.org/2000/svg"><g stroke="#8a8a8a" stroke-linecap="round" stroke-linejoin="round" stroke-width="2"><path d="m21 15.9999v-8c-.0004-.35072-.0929-.69519-.2685-.99884-.1755-.30364-.4278-.5558-.7315-.73116l-7-4c-.304-.17553-.6489-.26795-1-.26795s-.696.09242-1 .26795l-7 4c-.30374.17536-.55602.42752-.73154.73116-.17552.30365-.2681.64812-.26846.99884v8c.00036.3507.09294.6952.26846.9988.17552.3037.4278.5558.73154.7312l7 4c.304.1755.6489.268 1 .268s.696-.0925 1-.268l7-4c.3037-.1754.556-.4275.7315-.7312.1756-.3036.2681-.6481.2685-.9988z"/><path d="m3.26953 6.95996 8.72997 5.05004 8.73-5.05004"/><path d="m12 22.08v-10.08"/></g></svg>
