<svg fill="none" height="194" viewBox="0 0 276 194" width="276" xmlns="http://www.w3.org/2000/svg"><path d="m224.986 128.419c.309-.4.526-.864.637-1.357.11-.494.11-1.005.001-1.499-.109-.493-.325-.957-.633-1.359-.308-.401-.7-.73-1.149-.963l.684-7.874-4.688-1.582-.81 11.133c-.343.779-.387 1.657-.125 2.467.262.809.813 1.495 1.547 1.927.734.431 1.601.579 2.437.414.836-.164 1.583-.629 2.098-1.306z" fill="#d4c2a8"/><path d="m248.379 189.634h-4.218l-2.008-16.265h6.229z" fill="#d4c2a8"/><path d="m241.145 188.429h8.14v5.12h-13.264c0-1.358.539-2.66 1.501-3.621.961-.96 2.264-1.499 3.623-1.499z" fill="#4b1979"/><path d="m238.8 178.842-4.098 1.006-5.835-15.315 6.049-1.485z" fill="#d4c2a8"/><path d="m231.545 179.251 7.903-1.944 1.225 4.972-12.88 3.167c-.325-1.318-.112-2.712.592-3.874.703-1.161 1.84-1.997 3.16-2.321z" fill="#4b1979"/><path d="m243.441 184.448c-.385.001-.757-.141-1.044-.399-.286-.257-.467-.612-.506-.995l-4.856-45.199-4.226 13.822 5.986 21.588c.103.37.065.765-.105 1.109-.171.344-.463.613-.82.756l-4.759 1.901c-.195.079-.405.116-.616.112-.211-.005-.419-.053-.611-.141-.192-.087-.364-.212-.506-.368s-.252-.339-.321-.538l-7.335-21.026c-.803-2.295-1.158-4.724-1.047-7.153l1.024-22.691 26.965 1.141-.42 56.14c-.005.391-.156.766-.423 1.051-.267.286-.632.461-1.022.493l-5.236.394c-.041.002-.082.003-.122.003z" fill="#4b1979"/><path d="m238.975 75.0086c5.008 0 9.068-4.0557 9.068-9.0586 0-5.003-4.06-9.0586-9.068-9.0586-5.007 0-9.067 4.0556-9.067 9.0586 0 5.0029 4.06 9.0586 9.067 9.0586z" fill="#d4c2a8"/><path d="m245.643 127.843c-2.388 0-5.353-.195-8.423-.397-4.194-.276-8.53-.561-11.768-.374-.437.044-.878-.026-1.281-.201-.402-.175-.753-.45-1.019-.8-3.337-4.268 1.809-20.915 2.03-21.621l4.188-18.6137.18.0405-.18-.0405c.923-4.094 3.866-7.1139 7.683-7.881 3.574-.717 7.031.7122 9.248 3.8265.117.1652.235.3348.352.5086 7.218 10.68 3.135 37.2136 2.862 38.9246.381.457 2.443 3.037 1.876 4.829-.23.729-.856 1.226-1.861 1.475-1.28.253-2.584.361-3.888.323z" fill="#a06ece"/><path d="m225.598 127.851c-.821 0-1.929-.303-3.423-.922-.642-.267-2.595-1.079-.223-21.787 1.165-10.1725 2.834-20.2738 2.85-20.3745l.016-.0974.09-.0406c.043-.0195 4.306-1.9713 5.047-4.4797.024-.0868.053-.171.086-.2526.204-.5576.616-1.0149 1.149-1.2766s1.147-.3075 1.714-.1279c.598.1429 1.119.5078 1.458 1.0207s.47 1.1353.366 1.7411c-.258 1.636-.754 3.2255-1.473 4.7179-2.006 4.1345-3.365 15.0956-3.378 15.2056-.077.936-1.897 23.115-2.248 24.798-.122.587-.347 1.307-1.009 1.656-.317.156-.668.232-1.021.221z" fill="#4b1979"/><path d="m235.504 127.001c-.166 0-.327-.055-.457-.157-2.668-2.025 1.649-26.574 4.208-35.0438.513-1.6966.969-3.1486 1.357-4.3174.707-2.0973 1.2-4.2605 1.473-6.4566.141-1.1898.447-1.8692.936-2.0776.34-.1449.739-.0465 1.189.2925 2.365-.1166 4.664.8483 6.793 1.9108l1.917.9553 2.151 38.0438c-.061 2.428-4.852 4.142-6.941 4.251-3.355.176-9.381.722-12.035 2.401-.174.121-.379.189-.591.197z" fill="#4b1979"/><path d="m223.522 119.863c-.032 0-.063 0-.096-.003l-4.344-.267c-.216-.014-.427-.072-.62-.171s-.362-.237-.499-.406c-.136-.168-.236-.363-.292-.572-.057-.209-.07-.427-.037-.641l1.966-13.012 3.7-18.2565c.091-.4497.276-.8753.542-1.2491.267-.3738.609-.6875 1.004-.9208.396-.2333.836-.381 1.292-.4335.456-.0524.918-.0085 1.357.1289.749.2388 1.388.7373 1.801 1.4054.414.6682.575 1.462.454 2.2382l-2.94 18.2934-1.741 12.521c-.054.372-.239.713-.523.96-.284.246-.648.383-1.024.385z" fill="#4b1979"/><path d="m238.363 105.621c.265-.431.621-.798 1.044-1.077.422-.278.901-.46 1.401-.534.501-.073 1.012-.036 1.496.109.485.144.932.394 1.31.73l7.123-3.437 3.147 3.815-10.127 4.713c-.608.597-1.413.95-2.264.993s-1.688-.227-2.353-.759c-.665-.533-1.111-1.29-1.255-2.129-.143-.839.027-1.702.478-2.424z" fill="#d4c2a8"/><path d="m248.258 109.313c-.351-.001-.691-.118-.967-.335-.275-.217-.47-.52-.552-.861l-1.034-4.297c-.078-.323-.052-.663.077-.969.129-.307.353-.564.64-.734l6.239-3.7312-3.19-11.6673c-.276-.9991-.149-2.0664.353-2.9735.501-.9071 1.339-1.5819 2.333-1.8798.993-.298 2.064-.1955 2.983.2855s1.613 1.3024 1.933 2.2881l3.522 10.742c.433 1.3094.436 2.7225.01 4.034-.427 1.3112-1.26 2.4532-2.381 3.2582l-9.052 6.543c-.266.193-.586.296-.914.297z" fill="#4b1979"/><path d="m180.848 0h-174.69022c-1.63255.00195212-3.19767.65073-4.35205 1.80402-1.154387 1.15329-1.80377602 2.71692-1.80573 4.34792v18.78036c.00195398 1.631.651343 3.1947 1.80573 4.3479 1.15438 1.1533 2.7195 1.8021 4.35205 1.8041h174.69022c1.632-.002 3.197-.6508 4.352-1.8041 1.154-1.1532 1.803-2.7169 1.805-4.3479v-18.78036c-.002-1.631-.651-3.19463-1.805-4.34792-1.155-1.15329-2.72-1.80206788-4.352-1.80402zm5.509 24.9323c-.002 1.4592-.583 2.858-1.616 3.8898s-2.433 1.6124-3.893 1.6145h-174.69022c-1.46056-.0021-2.86068-.5827-3.89344-1.6145-1.03277-1.0318-1.613928-2.4306-1.616076-3.8898v-18.78036c.002148-1.45917.583306-2.85796 1.616076-3.88975 1.03276-1.03179 2.43288-1.612395 3.89344-1.614541h174.69022c1.46.002146 2.86.582751 3.893 1.614541s1.614 2.43058 1.616 3.88975z" fill="#3f3d56"/><path d="m180.848 75.4435h-174.69022c-1.63255-.0019-3.19767-.6507-4.35205-1.804-1.154387-1.1533-1.80377602-2.7169-1.80573-4.3479v-18.78c.00195398-1.631.651343-3.1947 1.80573-4.348 1.15438-1.1532 2.7195-1.802 4.35205-1.804h174.69022c1.632.002 3.197.6508 4.352 1.804 1.154 1.1533 1.803 2.717 1.805 4.348v18.78c-.002 1.631-.651 3.1946-1.805 4.3479-1.155 1.1533-2.72 1.8021-4.352 1.804zm-174.69022-30.4362c-1.46071.0016-2.86111.5821-3.89398 1.614s-1.613875 2.4309-1.615536 3.8903v18.78c.001368 1.4595.582236 2.8588 1.615146 3.891 1.0329 1.0321 2.43347 1.6127 3.89437 1.6144h174.69022c1.46-.0016 2.861-.582 3.894-1.6139s1.614-2.431 1.615-3.8904v-18.7811c-.001-1.4594-.582-2.8584-1.615-3.8903s-2.433-1.6124-3.894-1.614z" fill="#ccc"/><path d="m180.848 119.803h-174.69022c-1.63255-.002-3.19767-.651-4.35205-1.804-1.154387-1.153-1.80377602-2.717-1.80573-4.348v-18.7798c.00195398-1.631.651343-3.1947 1.80573-4.3479 1.15438-1.1533 2.7195-1.8021 4.35205-1.8041h174.69022c1.632.002 3.197.6508 4.352 1.8041 1.154 1.1532 1.803 2.7169 1.805 4.3479v18.7798c-.002 1.631-.651 3.195-1.805 4.348-1.155 1.153-2.72 1.802-4.352 1.804zm-174.69022-30.4376c-1.46071.0017-2.86111.5821-3.89398 1.614s-1.613875 2.431-1.615536 3.8903v18.7803c.001563 1.459.582526 2.858 1.615406 3.89 1.03289 1.032 2.43334 1.613 3.89411 1.614h174.69022c1.46-.001 2.861-.582 3.894-1.614 1.033-1.031 1.614-2.431 1.615-3.89v-18.7788c-.001-1.4597-.582-2.8592-1.615-3.8914s-2.433-1.6128-3.894-1.6144z" fill="#ccc"/><path d="m29.7627 26.2497c-2.1198 0-4.1919-.628-5.9545-1.8045-1.7625-1.1766-3.1362-2.8489-3.9474-4.8055-.8112-1.9565-1.0235-4.1095-.6099-6.1866.4135-2.077 1.4343-3.98495 2.9332-5.48243 1.4989-1.49749 3.4086-2.51729 5.4877-2.93045 2.079-.41315 4.234-.20111 6.1924.60933 1.9585.81043 3.6323 2.18285 4.81 3.94371 1.1777 1.76084 1.8063 3.83104 1.8063 5.94884 0 2.8398-1.1292 5.5634-3.1392 7.5714-2.0099 2.0081-4.7361 3.1362-7.5786 3.1362z" fill="#a06ece"/><path d="m165.024 24.2843h-114.4067c-.6877 0-1.3472-.2729-1.8334-.7587-.4863-.4858-.7595-1.1446-.7595-1.8317 0-.687.2732-1.3459.7595-1.8317.4862-.4858 1.1457-.7587 1.8334-.7587h114.4067c.687 0 1.347.2729 1.833.7587s.759 1.1447.759 1.8317c0 .6871-.273 1.3459-.759 1.8317s-1.146.7587-1.833.7587z" fill="#ccc"/><path d="m127.75 13.2753h-77.1356c-.6877 0-1.3472-.2729-1.8335-.7587-.4862-.4858-.7594-1.1447-.7594-1.8317 0-.68702.2732-1.34591.7594-1.8317.4863-.4858 1.1458-.75872 1.8335-.75872h77.1356c.687 0 1.347.27292 1.833.75872.486.48579.76 1.14468.76 1.8317 0 .687-.274 1.3459-.76 1.8317s-1.146.7587-1.833.7587z" fill="#ccc"/><g fill="#e6e6e6"><path d="m29.7627 70.6091c-2.1198 0-4.1919-.628-5.9545-1.8046-1.7625-1.1765-3.1362-2.8488-3.9474-4.8054s-1.0235-4.1095-.6099-6.1866c.4135-2.0771 1.4343-3.985 2.9332-5.4825 1.4989-1.4974 3.4086-2.5172 5.4877-2.9304 2.079-.4132 4.234-.2011 6.1924.6093 1.9585.8105 3.6323 2.1829 4.81 3.9437 1.1777 1.7609 1.8063 3.8311 1.8063 5.9489 0 2.8398-1.1292 5.5633-3.1392 7.5714-2.0099 2.0081-4.7361 3.1362-7.5786 3.1362z"/><path d="m165.024 68.644h-114.4067c-.6877 0-1.3472-.2729-1.8334-.7587-.4863-.4858-.7595-1.1447-.7595-1.8317 0-.6871.2732-1.346.7595-1.8318.4862-.4857 1.1457-.7587 1.8334-.7587h114.4067c.687 0 1.347.273 1.833.7587.486.4858.759 1.1447.759 1.8318 0 .687-.273 1.3459-.759 1.8317s-1.146.7587-1.833.7587z"/><path d="m127.75 57.6349h-77.1356c-.6877 0-1.3472-.2729-1.8335-.7587-.4862-.4858-.7594-1.1447-.7594-1.8317s.2732-1.3459.7594-1.8317c.4863-.4858 1.1458-.7587 1.8335-.7587h77.1356c.687 0 1.347.2729 1.833.7587s.76 1.1447.76 1.8317-.274 1.3459-.76 1.8317-1.146.7587-1.833.7587z"/><path d="m29.7627 114.968c-2.1198 0-4.1919-.628-5.9545-1.804-1.7625-1.177-3.1362-2.849-3.9474-4.806-.8112-1.956-1.0235-4.109-.6099-6.186.4135-2.077 1.4343-3.9851 2.9332-5.4826s3.4086-2.5173 5.4877-2.9304c2.079-.4132 4.234-.2011 6.1924.6093 1.9585.8104 3.6323 2.1829 4.81 3.9437 1.1777 1.761 1.8063 3.831 1.8063 5.949 0 2.84-1.1292 5.563-3.1392 7.571-2.0099 2.008-4.7361 3.136-7.5786 3.136z"/><path d="m165.024 113.004h-114.4067c-.6877 0-1.3472-.273-1.8334-.759-.4863-.486-.7595-1.145-.7595-1.832s.2732-1.346.7595-1.832c.4862-.485 1.1457-.758 1.8334-.758h114.4067c.687 0 1.347.273 1.833.758.486.486.759 1.145.759 1.832s-.273 1.346-.759 1.832-1.146.759-1.833.759z"/><path d="m127.75 101.995h-77.1356c-.6877 0-1.3472-.273-1.8335-.759-.4862-.486-.7594-1.145-.7594-1.8316 0-.687.2732-1.3459.7594-1.8317.4863-.4858 1.1458-.7587 1.8335-.7587h77.1356c.687 0 1.347.2729 1.833.7587s.76 1.1447.76 1.8317c0 .6866-.274 1.3456-.76 1.8316s-1.146.759-1.833.759z"/></g><path d="m29.2153 19.3085c-.2662.0006-.5254-.0853-.7384-.2449l-.0133-.01-2.778-2.1229c-.1287-.0985-.2366-.2214-.3178-.3617-.0811-.1402-.1338-.295-.155-.4556-.0212-.1605-.0106-.3237.0313-.4802.0418-.1565.1142-.3032.2128-.4317s.2217-.2364.362-.3175c.1404-.081.2954-.1337.4561-.1549s.324-.0106.4807.0313c.1566.0418.3034.1141.4321.2126l1.7993 1.3787 4.2518-5.5419c.1991-.2594.4932-.4292.8176-.472s.6526.0448.9123.2437l-.0262.0368.0269-.0368c.2594.1992.4291.4931.4718.8172.0428.324-.0448.6518-.2436.9114l-5.0012 6.5156c-.1159.1499-.2647.2711-.435.3542s-.3574.126-.547.1253z" fill="#fff"/><path d="m275.631 194h-73.096c-.098 0-.192-.039-.261-.108s-.108-.163-.108-.261.039-.192.108-.261.163-.108.261-.108h73.096c.098 0 .192.039.261.108s.108.163.108.261-.039.192-.108.261-.163.108-.261.108z" fill="#ccc"/><path d="m242.309 68.3647s-1.104-6.0952-3.615-5.367c-2.51.7283-8.972 1.4734-8.984-1.3972-.012-2.8705 6.082-5.4077 9.675-5.0643 3.594.3434 9.703 1.394 9.367 6.7776-.269 3.3907-1.318 6.6736-3.065 9.593z" fill="#4b1979"/></svg>