<svg fill="none" height="24" viewBox="0 0 24 24" width="24" xmlns="http://www.w3.org/2000/svg"><path d="m20.84 4.60987c-.5108-.51099-1.1172-.91635-1.7846-1.19291-.6675-.27657-1.3829-.41891-2.1054-.41891s-1.4379.14234-2.1054.41891c-.6674.27656-1.2738.68192-1.7846 1.19291l-1.06 1.06-1.06-1.06c-1.0317-1.03169-2.43097-1.61129-3.89-1.61129-1.45904 0-2.85831.5796-3.89 1.61129-1.0317 1.03169-1.61129 2.43097-1.61129 3.89 0 1.45904.57959 2.85833 1.61129 3.89003l1.06 1.06 7.78 7.78 7.78-7.78 1.06-1.06c.511-.5108.9163-1.1172 1.1929-1.7847.2766-.66743.4189-1.38284.4189-2.10533s-.1423-1.43789-.4189-2.10535-.6819-1.27389-1.1929-1.78465z" stroke="#8a8a8a" stroke-linecap="round" stroke-linejoin="round" stroke-width="2"/></svg>