<svg fill="none" height="24" viewBox="0 0 24 24" width="24" xmlns="http://www.w3.org/2000/svg"><path d="m20.8401 4.60987c-.5107-.51099-1.1172-.91635-1.7846-1.19291-.6675-.27657-1.3829-.41891-2.1054-.41891s-1.4379.14234-2.1053.41891c-.6675.27656-1.2739.68192-1.7847 1.19291l-1.06 1.06-1.06-1.06c-1.03167-1.03169-2.43095-1.61129-3.88998-1.61129s-2.85831.5796-3.89 1.61129-1.61129 2.43097-1.61129 3.89c0 1.45904.5796 2.85833 1.61129 3.89003l1.06 1.06 7.77998 7.78 7.78-7.78 1.06-1.06c.511-.5108.9164-1.1172 1.1929-1.7847.2766-.66743.4189-1.38284.4189-2.10533s-.1423-1.43789-.4189-2.10535c-.2765-.66746-.6819-1.27389-1.1929-1.78465z" stroke="#7126b5" stroke-linecap="round" stroke-linejoin="round" stroke-width="2"/></svg>